# xmcd
#
# Track frame offsets:
#	150
#	10403
#	21830
#	38407
#	51234
#	62661
#	73851
#	88191
#	105430
#	119245
#	132247
#	147774
#	158239
#
# Disc length: 2269 seconds
#
# Revision: 12
# Processed by: cddbd v1.5.2PL0 Copyright (c) Steve Scherf et al.
# Submitted via: Jack! The Knife 20 Magnifico
#
DISCID=b508db0d
DTITLE=La Polla Records - Bajo Presión
DYEAR=1994
DGENRE=Punk
TTITLE0=Monopoly
TTITLE1=El Ojo Te Ve
TTITLE2=La Futbolera
TTITLE3=Erik El Rojo
TTITLE4=Bang-Bang
TTITLE5=Palabras
TTITLE6=Gladiadores T.V.
TTITLE7=La Secta
TTITLE8=Fin De Siglo
TTITLE9=El Revolcador
TTITLE10=Harry Lo Hace Por Ti
TTITLE11=La Trece
TTITLE12=Analizando
EXTD=Jean Phocas
EXTT0=
EXTT1=
EXTT2=
EXTT3=
EXTT4=
EXTT5=
EXTT6=
EXTT7=
EXTT8=
EXTT9=
EXTT10=
EXTT11=
EXTT12=
PLAYORDER=
